<?xml version="1.0" encoding="utf-8"?>
<!-- Generator: Adobe Illustrator 16.0.4, SVG Export Plug-In . SVG Version: 6.00 Build 0)  -->
<!DOCTYPE svg PUBLIC "-//W3C//DTD SVG 1.1//EN" "http://www.w3.org/Graphics/SVG/1.1/DTD/svg11.dtd">
<svg version="1.1" id="Layer_1" xmlns="http://www.w3.org/2000/svg" xmlns:xlink="http://www.w3.org/1999/xlink" x="0px" y="0px"
	 width="308.713px" height="72.449px" viewBox="0 0 308.713 72.449" enable-background="new 0 0 308.713 72.449"
	 xml:space="preserve">
<g>
	<path fill="#28C7DD" d="M32.485,45.861L9.3,47.182c0.348,3.326,1.269,5.846,2.765,7.553c1.494,1.709,3.899,2.469,7.211,2.279
		c1.579-0.09,3.261-0.402,5.05-0.943c1.788-0.539,3.627-1.344,5.519-2.422c1.376,1.035,2.334,2.582,2.875,4.638
		c-4.05,2.944-8.916,4.581-14.595,4.901c-2.997,0.174-5.548-0.164-7.654-1.014c-2.105-0.851-3.852-2.085-5.235-3.703
		c-1.386-1.617-2.435-3.582-3.146-5.894c-0.715-2.313-1.145-4.822-1.3-7.53c-0.153-2.656,0.074-5.156,0.68-7.494
		c0.605-2.338,1.543-4.369,2.817-6.09c1.272-1.718,2.895-3.112,4.865-4.171c1.97-1.058,4.218-1.656,6.744-1.804
		c2.52-0.145,4.791,0.118,6.806,0.776c2.019,0.662,3.747,1.642,5.193,2.939c1.445,1.3,2.576,2.885,3.396,4.755
		c0.819,1.869,1.291,3.919,1.418,6.136c0.055,0.969,0.071,1.926,0.046,2.873C32.733,43.918,32.639,44.881,32.485,45.861z
		 M16.453,31.058c-4.998,0.285-7.485,3.847-7.463,10.686l15.931-0.912l-0.054-0.939c-0.157-2.756-0.929-4.955-2.313-6.599
		C21.167,31.653,19.133,30.906,16.453,31.058z"/>
	<path fill="#027A96" d="M90.153,50.012V31.764c0-3.135-0.443-5.48-1.331-7.048c1.303-1.15,3.002-1.724,5.092-1.724
		c2.869,0,4.305,1.694,4.305,5.078v19.924c0,2.709,0.34,4.638,1.019,5.781c0.68,1.146,1.88,1.717,3.603,1.717
		c1.722,0,3.471-0.43,5.246-1.289c1.775-0.858,3.367-2.018,4.778-3.479V23.463c1.461-0.208,2.793-0.314,3.994-0.314
		c1.201,0,2.585,0.108,4.152,0.314v27.725c0,3.652,0.729,6.136,2.192,7.439c-0.576,1.878-1.594,3.234-3.055,4.071
		c-3.29-0.574-5.48-2.453-6.578-5.638c-4.072,3.864-8.433,5.795-13.08,5.795c-3.444,0-6.03-1.178-7.753-3.523
		C91.014,56.98,90.153,53.876,90.153,50.012z"/>
	<path fill="#027A96" d="M126.339,27.221c0.521-1.932,1.511-3.368,2.977-4.306c3.604,0.782,5.977,3.106,7.128,6.971
		c2.085-4.646,5.506-6.971,10.257-6.971c1.254,0,2.637,0.157,4.152,0.468c0,3.032-0.654,5.589-1.958,7.678
		c-0.47-0.159-1.542-0.288-3.21-0.392c-3.553,0-6.346,1.985-8.381,5.949V62.15c-0.993,0.209-2.339,0.312-4.032,0.312
		c-1.696,0-3.043-0.104-4.035-0.312V35.288C129.236,31.739,128.271,29.051,126.339,27.221z"/>
	<path fill="#027A96" d="M163.747,28.496c0-1.827-0.438-3.171-1.084-3.977c-0.65-0.809-1.788-1.21-3.411-1.21h-1.849h-1.202
		l-0.546,0.469v9.065c0.018,0.222,0.022,0.47,0.022,0.728v28.66c0.996,0.213,2.337,0.312,4.031,0.312
		c1.642,0,2.947-0.094,3.925-0.295c0.042-0.005,0.077-0.017,0.112-0.021V30.274c0-0.054-0.004-0.103-0.004-0.155L163.747,28.496z"/>
	<path fill="#027A96" d="M82.85,16.234c0-1.825-0.438-3.171-1.082-3.972c-0.654-0.814-1.791-1.214-3.413-1.214h-1.851h-1.201
		l-0.551,0.469v7.704c0.021,0.221,0.028,0.469,0.028,0.728V62.23c0.993,0.213,2.334,0.312,4.031,0.312
		c1.642,0,2.947-0.094,3.929-0.295c0.041-0.005,0.074-0.017,0.108-0.021V16.651c0-0.053-0.006-0.103-0.006-0.155L82.85,16.234z"/>
	<path fill="#027A96" d="M196.823,47.585l2.658,6.501c1.203,3.184,2.459,5.223,3.761,6.109c-1.461,1.668-3.265,2.506-5.403,2.506
		c-1.355,0-2.4-0.352-3.13-1.059c-0.731-0.707-1.409-1.865-2.039-3.486l-3.128-7.674c-0.837-2.039-1.714-3.408-2.626-4.112
		c-0.916-0.705-1.997-1.058-3.251-1.058c-1.251,0-2.716,0.052-4.389,0.154V62.15c-0.99,0.209-2.297,0.312-3.916,0.312
		c-1.618,0-2.948-0.104-3.992-0.312V10.5l0.469-0.47h3.135c1.616,0,2.74,0.394,3.365,1.175c0.628,0.784,0.938,2.115,0.938,3.996
		v23.535l2.666-0.156c0.834,0,1.457-0.364,1.879-1.096l6.89-10.811c1.302-2.296,2.979-3.444,5.011-3.444
		c2.038,0,3.551,0.026,4.542,0.079l0.47,0.625l-8.535,13.55c-0.781,1.25-1.646,2.269-2.584,3.052
		C192.854,41.372,195.253,43.723,196.823,47.585z"/>
	<path fill="#027A96" d="M232.772,47.585l2.66,6.501c1.197,3.184,2.453,5.223,3.76,6.109c-1.463,1.668-3.264,2.506-5.402,2.506
		c-1.359,0-2.405-0.352-3.135-1.059c-0.729-0.705-1.407-1.865-2.035-3.486l-3.133-7.674c-0.836-2.039-1.711-3.408-2.622-4.112
		c-0.914-0.705-1.998-1.058-3.249-1.058c-1.256,0-2.717,0.052-4.391,0.154V62.15c-0.988,0.209-2.3,0.312-3.914,0.312
		c-1.621,0-2.951-0.104-3.992-0.312V10.5l0.469-0.47h3.132c1.617,0,2.74,0.394,3.363,1.175c0.628,0.784,0.94,2.115,0.94,3.996
		v23.535l2.662-0.156c0.836,0,1.463-0.364,1.881-1.096l6.894-10.811c1.302-2.296,2.976-3.444,5.011-3.444s3.549,0.026,4.54,0.079
		l0.47,0.625l-8.535,13.55c-0.779,1.25-1.645,2.269-2.584,3.052C228.803,41.372,231.204,43.723,232.772,47.585z"/>
	<path fill="#027A96" d="M242.308,50.012V31.764c0-3.135-0.447-5.48-1.336-7.048c1.303-1.15,3.002-1.724,5.094-1.724
		c2.869,0,4.305,1.694,4.305,5.078v19.924c0,2.709,0.339,4.638,1.018,5.781c0.682,1.146,1.879,1.717,3.604,1.717
		c1.72,0,3.469-0.43,5.245-1.289c1.771-0.858,3.369-2.018,4.775-3.479V23.463c1.461-0.208,2.791-0.314,3.993-0.314
		c1.198,0,2.586,0.108,4.154,0.314v27.725c0,3.652,0.729,6.136,2.188,7.439c-0.572,1.878-1.593,3.234-3.053,4.071
		c-3.291-0.574-5.482-2.453-6.577-5.638c-4.075,3.864-8.436,5.795-13.084,5.795c-3.444,0-6.028-1.178-7.75-3.523
		C243.166,56.98,242.308,53.876,242.308,50.012z"/>
	<path fill="#027A96" d="M279.392,60.074c0-0.891,0.227-1.909,0.68-3.062c0.455-1.152,1.003-2.06,1.642-2.725
		c4.286,2.053,7.729,3.001,10.325,2.848c2.646-0.156,4.58-0.712,5.802-1.67c1.221-0.96,1.789-2.171,1.703-3.629
		c-0.133-2.294-1.87-3.973-5.216-5.031l-4.456-1.389c-6.74-2.113-10.253-5.648-10.544-10.599c-0.209-3.598,0.916-6.502,3.377-8.714
		c2.458-2.207,5.775-3.435,9.943-3.679c4.222-0.246,8.473,0.447,12.752,2.081c0.062,1.044-0.096,2.151-0.473,3.322
		c-0.376,1.175-0.914,2.093-1.604,2.764c-3.803-1.505-7.317-2.162-10.548-1.974c-1.719,0.1-3.066,0.598-4.033,1.487
		c-0.967,0.894-1.412,1.966-1.342,3.22c0.074,1.249,0.507,2.193,1.305,2.828c0.795,0.634,2.072,1.241,3.832,1.814l4.795,1.522
		c6.769,2.169,10.309,5.885,10.614,11.15c0.21,3.596-1.01,6.517-3.647,8.764c-2.641,2.248-6.332,3.511-11.074,3.785
		C288.479,63.463,283.87,62.427,279.392,60.074z"/>
	<path fill="#027A96" d="M159.699,9.216c2.586,0,4.68,2.096,4.68,4.682c0,2.587-2.094,4.683-4.68,4.683
		c-2.589,0-4.685-2.096-4.685-4.683C155.017,11.312,157.11,9.216,159.699,9.216z"/>
	<path fill="#027A96" d="M51.755,55.729c-1.876,0-3.598,0.076-5.167,0.233l0.078-3.993V45.27v-5.098
		c1.2,0.059,2.821,0.08,4.854,0.08h1.963h11.401c0.259-0.888,0.393-2.023,0.393-3.409c0-1.384-0.133-2.547-0.393-3.479H51.52
		l-0.355,0.004l-4.498,0.069v-9.92c0,0-0.249-2.395-0.41-3.021c-0.164-0.625-0.641-2.067-0.641-2.067h9.488h13.615
		c0.418-1.1,0.63-2.338,0.63-3.721s-0.079-2.493-0.237-3.327H38.445v0.001h-1.596l0.002,0.003c-0.488-0.017-0.99,0.006-1.502,0.061
		c-1.087,1.361-1.571,3.042-1.447,5.031c1.919,0.886,3.882,2.04,4.543,4.793c0.078,2.434,0,36.416,0,36.416
		c0,1.619,0.431,2.889,1.291,3.797c0.86,0.918,2.026,1.373,3.488,1.373h21.895c3.079,0,4.856-1.309,5.325-3.918
		c0.157-0.729,0.234-1.803,0.234-3.209H51.755L51.755,55.729z"/>
</g>
</svg>
